<svg version="1.1" viewBox="0.0 0.0 960.0 720.0" fill="none" stroke="none" stroke-linecap="square" stroke-miterlimit="10" xmlns:xlink="http://www.w3.org/1999/xlink" xmlns="http://www.w3.org/2000/svg"><clipPath id="p.0"><path d="m0 0l960.0 0l0 720.0l-960.0 0l0 -720.0z" clip-rule="nonzero"/></clipPath><g clip-path="url(#p.0)"><path fill="#000000" fill-opacity="0.0" d="m0 0l960.0 0l0 720.0l-960.0 0z" fill-rule="evenodd"/><path fill="#000000" fill-opacity="0.0" d="m153.16536 360.0l0 0c0 -180.50578 146.32884 -326.83466 326.83466 -326.83466l0 0c86.681946 0 169.8136 34.43426 231.107 95.727646c61.293396 61.29338 95.72766 144.42505 95.72766 231.107l0 0c0 180.5058 -146.32886 326.83466 -326.83466 326.83466l0 0c-180.5058 0 -326.83466 -146.32886 -326.83466 -326.83466z" fill-rule="evenodd"/><path stroke="#dcded9" stroke-width="24.0" stroke-linejoin="round" stroke-linecap="butt" d="m153.16536 360.0l0 0c0 -180.50578 146.32884 -326.83466 326.83466 -326.83466l0 0c86.681946 0 169.8136 34.43426 231.107 95.727646c61.293396 61.29338 95.72766 144.42505 95.72766 231.107l0 0c0 180.5058 -146.32886 326.83466 -326.83466 326.83466l0 0c-180.5058 0 -326.83466 -146.32886 -326.83466 -326.83466z" fill-rule="evenodd"/><g filter="url(#shadowFilter-p.1)"><use xlink:href="#p.1" transform="matrix(1.0 0.0 0.0 1.0 0.0 2.0)"/></g><defs><filter id="shadowFilter-p.1" filterUnits="userSpaceOnUse"><feGaussianBlur in="SourceAlpha" stdDeviation="6.0" result="blur"/><feComponentTransfer in="blur" color-interpolation-filters="sRGB"><feFuncR type="linear" slope="0" intercept="0.0"/><feFuncG type="linear" slope="0" intercept="0.0"/><feFuncB type="linear" slope="0" intercept="0.0"/><feFuncA type="linear" slope="0.67" intercept="0"/></feComponentTransfer></filter></defs><g id="p.1"><path fill="#ffffff" d="m162.66142 360.0l0 0c0 -175.26126 142.07732 -317.3386 317.33856 -317.3386l0 0c84.16345 0 164.87976 33.43379 224.39227 92.94632c59.512512 59.512527 92.94629 140.22884 92.94629 224.39226l0 0c0 175.26123 -142.07733 317.33856 -317.33856 317.33856l0 0c-175.26126 0 -317.33856 -142.07733 -317.33856 -317.33856z" fill-rule="evenodd"/></g><path fill="#000000" fill-opacity="0.0" d="m291.68503 360.0l0 0c0 -104.00348 84.31149 -188.31496 188.31497 -188.31496l0 0c49.944214 0 97.842896 19.840271 133.15881 55.156174c35.315857 35.315918 55.156128 83.21454 55.156128 133.15878l0 0c0 104.00348 -84.31146 188.31494 -188.31494 188.31494l0 0c-104.00348 0 -188.31497 -84.31146 -188.31497 -188.31494z" fill-rule="evenodd"/><path stroke="#b5e35e" stroke-width="8.0" stroke-linejoin="round" stroke-linecap="butt" d="m291.68503 360.0l0 0c0 -104.00348 84.31149 -188.31496 188.31497 -188.31496l0 0c49.944214 0 97.842896 19.840271 133.15881 55.156174c35.315857 35.315918 55.156128 83.21454 55.156128 133.15878l0 0c0 104.00348 -84.31146 188.31494 -188.31494 188.31494l0 0c-104.00348 0 -188.31497 -84.31146 -188.31497 -188.31494z" fill-rule="evenodd"/><path fill="#ffffff" d="m284.89764 114.580055l195.10236 217.25986l195.10236 -217.25986z" fill-rule="evenodd"/><path fill="#000000" fill-opacity="0.0" d="m480.0 165.15486l0 128.59843" fill-rule="evenodd"/><path stroke="#b5e35e" stroke-width="8.0" stroke-linejoin="round" stroke-linecap="butt" d="m480.0 165.15486l0 128.59843" fill-rule="evenodd"/></g></svg>